<svg width="139" height="67" viewBox="0 0 139 67" fill="none" xmlns="http://www.w3.org/2000/svg">
<path d="M32.8522 33.5185L55.2522 20.6185C60.5522 17.6185 62.3522 10.8185 59.2522 5.51854C56.2522 0.218539 49.4522 -1.58146 44.1522 1.51854L5.5522 23.8185L32.8522 33.5185Z" fill="#E84336"/>
<path d="M49.7522 66.8185C53.5522 66.8185 57.2522 64.8185 59.3522 61.3185C62.3522 56.0185 60.5522 49.3185 55.3522 46.2185L16.5522 23.8185C11.2522 20.8185 4.55219 22.6185 1.45219 27.8185C-1.54781 33.1185 0.252194 39.8185 5.45219 42.9185L44.1522 65.3185C45.9522 66.3185 47.8522 66.8185 49.7522 66.8185Z" fill="#4282F2"/>
<path d="M88.2522 66.8186C90.1522 66.8186 92.0522 66.3186 93.7522 65.3186L132.552 42.9186L105.552 33.0186L82.7522 46.1186C77.4522 49.1186 75.6522 55.9186 78.7522 61.2186C80.7522 64.8186 84.4522 66.8186 88.2522 66.8186Z" fill="#F9BA08"/>
<path d="M127.052 44.4185C130.852 44.4185 134.552 42.4185 136.652 38.9185C139.652 33.6185 137.852 26.9185 132.652 23.8185L93.8522 1.51854C88.5522 -1.48146 81.8522 0.318539 78.7522 5.51854C75.7522 10.8185 77.5522 17.5185 82.7522 20.6185L121.552 42.9185C123.252 43.9185 125.152 44.4185 127.052 44.4185Z" fill="#00A150"/>
</svg>
