<svg width="333" height="30" viewBox="0 0 333 30" fill="none" xmlns="http://www.w3.org/2000/svg">
<rect x="7.77734" y="12.7393" width="2.22222" height="3.52174" fill="#FCDA00"/>
<rect y="12.7393" width="2.59259" height="3.52174" fill="#FC8A32"/>
<rect x="2.22266" y="10" width="5.55556" height="6.26087" fill="#FCDA00"/>
<rect x="2.22266" y="16.2607" width="5.55556" height="2.73913" fill="#FDB016"/>
<rect x="330.777" y="12.7393" width="2.22222" height="3.52174" fill="#FCDA00"/>
<rect x="323" y="12.7393" width="2.59259" height="3.52174" fill="#FC8A32"/>
<rect x="325.223" y="10" width="5.55556" height="6.26087" fill="#FCDA00"/>
<rect x="325.223" y="16.2607" width="5.55556" height="2.73913" fill="#FDB016"/>
<rect x="313.777" y="12.7393" width="2.22222" height="3.52174" fill="#FCDA00"/>
<rect x="306" y="12.7393" width="2.59259" height="3.52174" fill="#FC8A32"/>
<rect x="308.223" y="10" width="5.55556" height="6.26087" fill="#FCDA00"/>
<rect x="308.223" y="16.2607" width="5.55556" height="2.73913" fill="#FDB016"/>
<rect x="296.777" y="12.7393" width="2.22222" height="3.52174" fill="#FCDA00"/>
<rect x="289" y="12.7393" width="2.59259" height="3.52174" fill="#FC8A32"/>
<rect x="291.223" y="10" width="5.55556" height="6.26087" fill="#FCDA00"/>
<rect x="291.223" y="16.2607" width="5.55556" height="2.73913" fill="#FDB016"/>
<rect x="279.777" y="12.7393" width="2.22222" height="3.52174" fill="#FCDA00"/>
<rect x="272" y="12.7393" width="2.59259" height="3.52174" fill="#FC8A32"/>
<rect x="274.223" y="10" width="5.55556" height="6.26087" fill="#FCDA00"/>
<rect x="274.223" y="16.2607" width="5.55556" height="2.73913" fill="#FDB016"/>
<rect x="262.777" y="12.7393" width="2.22222" height="3.52174" fill="#FCDA00"/>
<rect x="255" y="12.7393" width="2.59259" height="3.52174" fill="#FC8A32"/>
<rect x="257.223" y="10" width="5.55556" height="6.26087" fill="#FCDA00"/>
<rect x="257.223" y="16.2607" width="5.55556" height="2.73913" fill="#FDB016"/>
<rect x="245.777" y="12.7393" width="2.22222" height="3.52174" fill="#FCDA00"/>
<rect x="238" y="12.7393" width="2.59259" height="3.52174" fill="#FC8A32"/>
<rect x="240.223" y="10" width="5.55556" height="6.26087" fill="#FCDA00"/>
<rect x="240.223" y="16.2607" width="5.55556" height="2.73913" fill="#FDB016"/>
<rect x="228.777" y="12.7393" width="2.22222" height="3.52174" fill="#FCDA00"/>
<rect x="221" y="12.7393" width="2.59259" height="3.52174" fill="#FC8A32"/>
<rect x="223.223" y="10" width="5.55556" height="6.26087" fill="#FCDA00"/>
<rect x="223.223" y="16.2607" width="5.55556" height="2.73913" fill="#FDB016"/>
<rect x="211.777" y="12.7393" width="2.22222" height="3.52174" fill="#FCDA00"/>
<rect x="204" y="12.7393" width="2.59259" height="3.52174" fill="#FC8A32"/>
<rect x="206.223" y="10" width="5.55556" height="6.26087" fill="#FCDA00"/>
<rect x="206.223" y="16.2607" width="5.55556" height="2.73913" fill="#FDB016"/>
<rect x="194.777" y="12.7393" width="2.22222" height="3.52174" fill="#FCDA00"/>
<rect x="187" y="12.7393" width="2.59259" height="3.52174" fill="#FC8A32"/>
<rect x="189.223" y="10" width="5.55556" height="6.26087" fill="#FCDA00"/>
<rect x="189.223" y="16.2607" width="5.55556" height="2.73913" fill="#FDB016"/>
<rect x="143.777" y="12.7393" width="2.22222" height="3.52174" fill="#FCDA00"/>
<rect x="136" y="12.7393" width="2.59259" height="3.52174" fill="#FC8A32"/>
<rect x="138.223" y="10" width="5.55556" height="6.26087" fill="#FCDA00"/>
<rect x="138.223" y="16.2607" width="5.55556" height="2.73913" fill="#FDB016"/>
<rect x="126.777" y="12.7393" width="2.22222" height="3.52174" fill="#FCDA00"/>
<rect x="119" y="12.7393" width="2.59259" height="3.52174" fill="#FC8A32"/>
<rect x="121.223" y="10" width="5.55556" height="6.26087" fill="#FCDA00"/>
<rect x="121.223" y="16.2607" width="5.55556" height="2.73913" fill="#FDB016"/>
<rect x="109.777" y="12.7393" width="2.22222" height="3.52174" fill="#FCDA00"/>
<rect x="102" y="12.7393" width="2.59259" height="3.52174" fill="#FC8A32"/>
<rect x="104.223" y="10" width="5.55556" height="6.26087" fill="#FCDA00"/>
<rect x="104.223" y="16.2607" width="5.55556" height="2.73913" fill="#FDB016"/>
<rect x="92.7773" y="12.7393" width="2.22222" height="3.52174" fill="#FCDA00"/>
<rect x="85" y="12.7393" width="2.59259" height="3.52174" fill="#FC8A32"/>
<rect x="87.2227" y="10" width="5.55556" height="6.26087" fill="#FCDA00"/>
<rect x="87.2227" y="16.2607" width="5.55556" height="2.73913" fill="#FDB016"/>
<rect x="75.7773" y="12.7393" width="2.22222" height="3.52174" fill="#FCDA00"/>
<rect x="68" y="12.7393" width="2.59259" height="3.52174" fill="#FC8A32"/>
<rect x="70.2227" y="10" width="5.55556" height="6.26087" fill="#FCDA00"/>
<rect x="70.2227" y="16.2607" width="5.55556" height="2.73913" fill="#FDB016"/>
<rect x="58.7773" y="12.7393" width="2.22222" height="3.52174" fill="#FCDA00"/>
<rect x="51" y="12.7393" width="2.59259" height="3.52174" fill="#FC8A32"/>
<rect x="53.2227" y="10" width="5.55556" height="6.26087" fill="#FCDA00"/>
<rect x="53.2227" y="16.2607" width="5.55556" height="2.73913" fill="#FDB016"/>
<rect x="41.7773" y="12.7393" width="2.22222" height="3.52174" fill="#FCDA00"/>
<rect x="34" y="12.7393" width="2.59259" height="3.52174" fill="#FC8A32"/>
<rect x="36.2227" y="10" width="5.55556" height="6.26087" fill="#FCDA00"/>
<rect x="36.2227" y="16.2607" width="5.55556" height="2.73913" fill="#FDB016"/>
<rect x="24.7773" y="12.7393" width="2.22222" height="3.52174" fill="#FCDA00"/>
<rect x="17" y="12.7393" width="2.59259" height="3.52174" fill="#FC8A32"/>
<rect x="19.2227" y="10" width="5.55556" height="6.26087" fill="#FCDA00"/>
<rect x="19.2227" y="16.2607" width="5.55556" height="2.73913" fill="#FDB016"/>
<rect x="154" y="8.75" width="4.04447" height="11.25" fill="#AD16B3"/>
<rect x="158.045" y="15.625" width="4.62226" height="9.375" fill="#AD16B3"/>
<rect x="162.667" y="20" width="4.62226" height="10" fill="#AD16B3"/>
<rect x="167.289" y="25" width="4.62226" height="5" fill="#AD16B3"/>
<rect x="158.045" y="4.375" width="4.62226" height="5" fill="#FFFDFF"/>
<rect x="162.667" width="9.24451" height="5" fill="#FFFDFF"/>
<rect x="167.289" y="4.375" width="8.66673" height="4.375" fill="#FFFDFF"/>
<rect x="171.911" y="8.75" width="4.04447" height="4.375" fill="#FFFDFF"/>
<path d="M158.045 9.375H162.667V5H167.289V8.75H171.912V15.625H158.045V9.375Z" fill="#E6297E"/>
<path d="M162.667 15.625H180V20.3125H175.956V20H162.667V15.625Z" fill="#E6297E"/>
<path d="M167.289 20H175.378H175.956V25H167.289V20Z" fill="#E6297E"/>
<path d="M171.911 13.125H175.956V8.4375H180V13.125V15.625H171.911V13.125Z" fill="#E6297E"/>
</svg>
